<svg width="265" height="26" viewBox="0 0 265 26" fill="none" xmlns="http://www.w3.org/2000/svg">
<path d="M213.161 12.5744C213.161 18.1428 208.645 22.6582 203.077 22.6582C197.508 22.6582 193.013 18.1428 193.013 12.5744C193.013 7.00604 197.529 2.4906 203.097 2.4906C208.665 2.4906 213.161 7.00604 213.161 12.5744ZM203.097 6.60107C199.796 6.60107 197.103 9.29413 197.103 12.5946C197.103 15.8952 199.796 18.5882 203.097 18.5882C206.398 18.5882 209.091 15.8952 209.091 12.5946C209.091 9.29413 206.398 6.60107 203.097 6.60107Z" fill="#403D38"/>
<path d="M202.955 14.5992C204.096 14.5992 205.021 13.6745 205.021 12.5339C205.021 11.3932 204.096 10.4685 202.955 10.4685C201.815 10.4685 200.89 11.3932 200.89 12.5339C200.89 13.6745 201.815 14.5992 202.955 14.5992Z" fill="#403D38"/>
<path d="M221.199 9.3954L234.361 22.6987H237.398V10.5091H233.328V15.632L219.923 2.36914H217.149V14.66H221.199V9.3954Z" fill="#403D38"/>
<path d="M219.174 22.6784C220.315 22.6784 221.24 21.7538 221.24 20.6131C221.24 19.4724 220.315 18.5477 219.174 18.5477C218.034 18.5477 217.109 19.4724 217.109 20.6131C217.109 21.7538 218.034 22.6784 219.174 22.6784Z" fill="#403D38"/>
<path d="M235.353 6.56065C236.494 6.56065 237.418 5.63595 237.418 4.49529C237.418 3.35462 236.494 2.42993 235.353 2.42993C234.212 2.42993 233.288 3.35462 233.288 4.49529C233.288 5.63595 234.212 6.56065 235.353 6.56065Z" fill="#403D38"/>
<path d="M241.448 2.36914L241.488 22.6785L261.656 22.719L261.696 18.73H245.497V6.47961H261.696V2.36914H241.448Z" fill="#403D38"/>
<path d="M251.592 14.5993C252.733 14.5993 253.658 13.6746 253.658 12.534C253.658 11.3933 252.733 10.4686 251.592 10.4686C250.452 10.4686 249.527 11.3933 249.527 12.534C249.527 13.6746 250.452 14.5993 251.592 14.5993Z" fill="#403D38"/>
<path d="M184.772 14.5992C185.913 14.5992 186.837 13.6745 186.837 12.5339C186.837 11.3932 185.913 10.4685 184.772 10.4685C183.631 10.4685 182.707 11.3932 182.707 12.5339C182.707 13.6745 183.631 14.5992 184.772 14.5992Z" fill="#403D38"/>
<path d="M156.262 2.36914H170.213V6.47961H160.291V10.4686H176.531V22.6785H162.539L162.559 18.568H172.501V14.579H156.242L156.262 2.36914Z" fill="#403D38"/>
<path d="M174.506 6.49985C175.646 6.49985 176.571 5.57516 176.571 4.4345C176.571 3.29383 175.646 2.36914 174.506 2.36914C173.365 2.36914 172.44 3.29383 172.44 4.4345C172.44 5.57516 173.365 6.49985 174.506 6.49985Z" fill="#403D38"/>
<path d="M158.408 22.6987C159.549 22.6987 160.473 21.774 160.473 20.6334C160.473 19.4927 159.549 18.568 158.408 18.568C157.267 18.568 156.343 19.4927 156.343 20.6334C156.343 21.774 157.267 22.6987 158.408 22.6987Z" fill="#403D38"/>
<path d="M131.923 22.6987L131.882 2.36914H152.131V6.47961H135.932V22.6987H131.923Z" fill="#403D38"/>
<path d="M152.151 10.4686H131.902V14.5791H152.151V10.4686Z" fill="#403D38"/>
<path d="M148.009 2.47716V14.5858H152.12V2.47716H148.009Z" fill="#403D38"/>
<path d="M137.269 12.0277L152.131 22.6785L145.246 22.7595L134.899 15.3282L137.269 12.0277Z" fill="#403D38"/>
<path d="M107.604 2.36914L107.645 22.6785L127.813 22.719L127.853 18.73H111.654V6.47961H127.853V2.36914H107.604Z" fill="#403D38"/>
<path d="M117.749 14.5993C118.89 14.5993 119.814 13.6746 119.814 12.534C119.814 11.3933 118.89 10.4686 117.749 10.4686C116.608 10.4686 115.684 11.3933 115.684 12.534C115.684 13.6746 116.608 14.5993 117.749 14.5993Z" fill="#403D38"/>
<path d="M103.534 2.36914L86.8494 19.054L83.9336 16.1382L97.7026 2.36914H103.534Z" fill="#403D38"/>
<path d="M83.5371 2.44586V22.6945H87.6071V2.44586H83.5371Z" fill="#403D38"/>
<path d="M97.7838 22.6987L88.105 13.0401L90.9803 10.1648L103.514 22.6987H97.7838Z" fill="#403D38"/>
<path d="M59.271 2.36914L59.3115 22.6785L79.4791 22.719L79.5196 18.73H63.3207V6.47961H79.5196V2.36914H59.271Z" fill="#403D38"/>
<path d="M55.2619 2.32861H51.1919V22.6987H55.2619V2.32861Z" fill="#403D38"/>
<path d="M47.1627 2.36914H26.9141V6.47961H47.1627V2.36914Z" fill="#403D38"/>
<path d="M35.0029 2.4472V22.6958H39.0729V2.4472H35.0029Z" fill="#403D38"/>
<path d="M2.55492 2.36914H16.5062V6.47961H6.58439V10.4686H22.8238V22.6785H8.85223V18.568H18.7943V14.579H2.53467L2.55492 2.36914Z" fill="#403D38"/>
<path d="M20.7382 6.49985C21.8789 6.49985 22.8036 5.57516 22.8036 4.4345C22.8036 3.29383 21.8789 2.36914 20.7382 2.36914C19.5975 2.36914 18.6729 3.29383 18.6729 4.4345C18.6729 5.57516 19.5975 6.49985 20.7382 6.49985Z" fill="#403D38"/>
<path d="M4.64055 22.6987C5.78122 22.6987 6.70591 21.774 6.70591 20.6334C6.70591 19.4927 5.78122 18.568 4.64055 18.568C3.49989 18.568 2.5752 19.4927 2.5752 20.6334C2.5752 21.774 3.49989 22.6987 4.64055 22.6987Z" fill="#403D38"/>
</svg>
