<svg width="55" height="55" viewBox="0 0 55 55" fill="none" xmlns="http://www.w3.org/2000/svg">
<g clip-path="url(#clip0_0_459)">
<path d="M7.97766 7.97168H34.64L34.6787 15.8272H15.7171V23.4506H46.7522V46.785H20.0125V38.9294H39.0128V31.2674H7.93896L7.97766 7.97168Z" fill="#403D38"/>
<path d="M42.7274 15.8659C44.9073 15.8659 46.6745 14.0987 46.6745 11.9188C46.6745 9.73886 44.9073 7.97168 42.7274 7.97168C40.5475 7.97168 38.7803 9.73886 38.7803 11.9188C38.7803 14.0987 40.5475 15.8659 42.7274 15.8659Z" fill="#403D38"/>
<path d="M12.0018 46.8235C14.1817 46.8235 15.9489 45.0564 15.9489 42.8764C15.9489 40.6965 14.1817 38.9293 12.0018 38.9293C9.82187 38.9293 8.05469 40.6965 8.05469 42.8764C8.05469 45.0564 9.82187 46.8235 12.0018 46.8235Z" fill="#403D38"/>
<path d="M52.634 2.28308H2.32764V52.5894H52.634V2.28308Z" stroke="#403D38" stroke-width="4.25669" stroke-miterlimit="10"/>
</g>
<defs>
<clipPath id="clip0_0_459">
<rect width="54.9887" height="54.95" fill="white" transform="translate(0.00585938)"/>
</clipPath>
</defs>
</svg>
