<svg width="30" height="30" viewBox="0 0 30 30" fill="none" xmlns="http://www.w3.org/2000/svg">
<path d="M3.42175 13.6055L19.1425 7.17193C20.6952 6.50396 25.9569 4.35943 25.9569 4.35943C25.9569 4.35943 28.3827 3.42193 28.1835 5.70123C28.119 6.63873 27.5741 9.92584 27.035 13.4766L25.3475 24.0059C25.3475 24.0059 25.2128 25.5469 24.0643 25.8165C22.9159 26.086 21.0292 24.879 20.6952 24.6094C20.4257 24.4102 15.6327 21.3926 13.8807 19.9161C13.4061 19.5118 12.8729 18.709 13.9452 17.7715C16.371 15.5626 19.2772 12.8145 21.0292 11.0684C21.8378 10.2657 22.6464 8.39068 19.2772 10.6641L9.76159 17.0215C9.76159 17.0215 8.68346 17.6895 6.65612 17.086C4.63464 16.4825 2.26745 15.6797 2.26745 15.6797C2.26745 15.6797 0.656121 14.6778 3.42175 13.6055Z" fill="#403D38"/>
</svg>
