<svg width="28" height="22" viewBox="0 0 28 22" fill="none" xmlns="http://www.w3.org/2000/svg">
<path d="M2.42175 9.60553L18.1425 3.17193C19.6952 2.50396 24.9569 0.359433 24.9569 0.359433C24.9569 0.359433 27.3827 -0.578067 27.1835 1.70123C27.119 2.63873 26.5741 5.92584 26.035 9.47662L24.3475 20.0059C24.3475 20.0059 24.2128 21.5469 23.0643 21.8165C21.9159 22.086 20.0292 20.879 19.6952 20.6094C19.4257 20.4102 14.6327 17.3926 12.8807 15.9161C12.4061 15.5118 11.8729 14.709 12.9452 13.7715C15.371 11.5626 18.2772 8.81451 20.0292 7.06842C20.8378 6.26568 21.6464 4.39068 18.2772 6.66412L8.76159 13.0215C8.76159 13.0215 7.68346 13.6895 5.65612 13.086C3.63464 12.4825 1.26745 11.6797 1.26745 11.6797C1.26745 11.6797 -0.343879 10.6778 2.42175 9.60553Z" fill="#403D38"/>
</svg>
