<svg width="70" height="50" viewBox="0 0 70 50" fill="none" xmlns="http://www.w3.org/2000/svg">
<rect width="70" height="50" fill="#F5F5F5"/>
<rect width="1440" height="3872" transform="translate(-345 -3376)" fill="white"/>
<rect width="1440" height="578" transform="translate(-345 -282)" fill="#403D38"/>
<g clip-path="url(#clip0_0_1)">
<rect x="-64" y="-89" width="197" height="302" rx="30" fill="black"/>
<rect x="-64" y="-89" width="197" height="302" fill="url(#paint0_linear_0_1)"/>
<g clip-path="url(#clip1_0_1)">
<g clip-path="url(#clip2_0_1)">
<g clip-path="url(#clip3_0_1)">
<path d="M34.9997 0C21.3364 0 10.2598 11.0766 10.2598 24.74C10.2598 38.4035 21.3364 49.4801 34.9997 49.4801C48.6631 49.4801 59.7397 38.4035 59.7397 24.74C59.7397 11.0766 48.6631 0 34.9997 0ZM45.7281 28.0101C45.9228 28.2509 46.3858 28.72 47.1183 29.4183H47.1354L47.1524 29.4348L47.1695 29.4525L47.2041 29.4866C48.8176 30.9856 49.9104 32.2504 50.4827 33.2804C50.5173 33.3372 50.5545 33.4094 50.5946 33.4952C50.6343 33.581 50.6744 33.7324 50.7146 33.9497C50.7542 34.168 50.7511 34.3616 50.7059 34.5333C50.6603 34.7044 50.5172 34.8629 50.277 35.0054C50.0366 35.1489 49.6991 35.2201 49.264 35.2201L44.8696 35.2894C44.5951 35.3465 44.2746 35.3179 43.9084 35.2036C43.5417 35.0887 43.2447 34.9628 43.0159 34.8258L42.6722 34.6192C42.3285 34.3788 41.9282 34.0125 41.4706 33.5209C41.0126 33.0287 40.6207 32.5852 40.2947 32.1904C39.9686 31.7955 39.6194 31.4644 39.2471 31.1945C38.8748 30.9256 38.5517 30.8368 38.2773 30.9286C38.2432 30.9407 38.197 30.9608 38.1398 30.9889C38.0822 31.0175 37.9853 31.0998 37.8478 31.2376C37.7104 31.3751 37.5874 31.5442 37.4786 31.7439C37.3697 31.9446 37.2725 32.2421 37.1866 32.6369C37.1008 33.0313 37.0632 33.4753 37.0752 33.9675C37.0752 34.1385 37.0546 34.2966 37.015 34.4396C36.9748 34.5826 36.9317 34.6884 36.886 34.7566L36.8173 34.8424C36.6111 35.0607 36.308 35.1861 35.9077 35.2202H33.9335C33.1208 35.2664 32.2854 35.1721 31.4275 34.9373C30.5697 34.7019 29.8166 34.3994 29.1704 34.0272C28.5232 33.656 27.9342 33.2781 27.4024 32.8948C26.8701 32.5111 26.4667 32.1825 26.1923 31.908L25.7633 31.4956C25.6489 31.3817 25.4914 31.2096 25.2912 30.9804C25.091 30.7516 24.6822 30.2313 24.064 29.4186C23.4458 28.6058 22.8394 27.7424 22.2443 26.8262C21.6493 25.9106 20.9484 24.703 20.1411 23.2039C19.3344 21.7054 18.5878 20.1491 17.901 18.5351C17.8323 18.3525 17.7977 18.1979 17.7977 18.072C17.7977 17.9466 17.8147 17.8548 17.8494 17.7971L17.9181 17.6943C18.0896 17.4765 18.4158 17.3676 18.8965 17.3676L23.5999 17.3335C23.7373 17.3565 23.8688 17.3937 23.9947 17.4454C24.1207 17.4966 24.2125 17.5452 24.2697 17.5909L24.3555 17.6426C24.5386 17.769 24.6756 17.9516 24.7674 18.1919C24.9962 18.7648 25.2596 19.3569 25.5571 19.9689C25.8546 20.581 26.0894 21.0477 26.2609 21.3677L26.5354 21.8658C26.8671 22.5522 27.1877 23.1477 27.4967 23.6509C27.8062 24.1547 28.0832 24.547 28.3296 24.8269C28.5753 25.1074 28.8127 25.3281 29.0419 25.4876C29.2707 25.6482 29.4654 25.7284 29.6258 25.7284C29.7859 25.7284 29.9404 25.6998 30.0894 25.6426C30.112 25.6311 30.1406 25.6026 30.1752 25.5569C30.2098 25.5112 30.278 25.3853 30.3814 25.1786C30.4842 24.9729 30.5615 24.704 30.6131 24.3718C30.6648 24.0408 30.7189 23.5771 30.7762 22.982C30.8334 22.3866 30.8334 21.6716 30.7762 20.8364C30.7532 20.3783 30.7015 19.9609 30.6217 19.5831C30.5414 19.2058 30.4611 18.9424 30.3814 18.7934L30.278 18.5877C29.9921 18.1989 29.5059 17.9525 28.8191 17.8492C28.67 17.8271 28.6987 17.6896 28.9048 17.4377C29.0995 17.2201 29.3167 17.0489 29.5571 16.9226C30.1636 16.6256 31.5313 16.488 33.66 16.5101C34.5982 16.5223 35.3708 16.5959 35.9773 16.7335C36.2061 16.7911 36.3978 16.8679 36.5522 16.9652C36.7068 17.062 36.8241 17.2 36.9044 17.3766C36.9842 17.5542 37.0445 17.7373 37.0846 17.9259C37.1246 18.115 37.1448 18.3759 37.1448 18.7071C37.1448 19.0391 37.1393 19.3543 37.1278 19.6512C37.1161 19.9487 37.1021 20.3526 37.085 20.8614C37.068 21.3706 37.059 21.8432 37.059 22.2777C37.059 22.4041 37.0535 22.6439 37.042 22.9986C37.0304 23.3538 37.0269 23.6282 37.0334 23.8224C37.0389 24.0171 37.059 24.2494 37.0931 24.5178C37.1278 24.7867 37.1934 25.0104 37.2908 25.1871C37.3876 25.3647 37.5166 25.5046 37.677 25.6075C37.7684 25.6311 37.8657 25.6537 37.9691 25.6767C38.0719 25.6993 38.2204 25.6371 38.4151 25.4876C38.6092 25.3392 38.827 25.1415 39.0673 24.8956C39.3077 24.6503 39.6052 24.267 39.9599 23.7458C40.314 23.2259 40.7034 22.6104 41.1268 21.9005C41.8136 20.7104 42.4257 19.4225 42.9636 18.0379C43.0092 17.9229 43.0664 17.8231 43.1351 17.7373C43.2038 17.651 43.2665 17.5909 43.3238 17.5567L43.3925 17.5051C43.415 17.4934 43.4437 17.4794 43.4783 17.4624C43.5129 17.4458 43.5871 17.4283 43.7016 17.4107C43.816 17.3942 43.9303 17.3912 44.0452 17.4027L48.9891 17.3675C49.4351 17.3108 49.8013 17.3249 50.0873 17.4102C50.3733 17.4959 50.5509 17.5909 50.6195 17.6937L50.7229 17.8652C50.9858 18.5981 50.1279 20.2794 48.1481 22.9118C47.8732 23.2785 47.5009 23.7653 47.0323 24.3713C46.1399 25.5162 45.625 26.2658 45.4886 26.6215C45.2931 27.0894 45.3734 27.553 45.7281 28.0101Z" fill="white"/>
</g>
</g>
</g>
</g>
<defs>
<linearGradient id="paint0_linear_0_1" x1="34.5" y1="213" x2="34.5" y2="-89" gradientUnits="userSpaceOnUse">
<stop stop-color="#A2C5FF"/>
</linearGradient>
<clipPath id="clip0_0_1">
<rect x="-64" y="-89" width="197" height="302" rx="30" fill="white"/>
</clipPath>
<clipPath id="clip1_0_1">
<rect width="70" height="49.48" fill="white"/>
</clipPath>
<clipPath id="clip2_0_1">
<rect width="70" height="49.48" fill="white"/>
</clipPath>
<clipPath id="clip3_0_1">
<rect width="69.9782" height="49.48" fill="white" transform="translate(0.0107422)"/>
</clipPath>
</defs>
</svg>
